<svg xmlns="http://www.w3.org/2000/svg" xmlns:xlink="http://www.w3.org/1999/xlink" width="100" height="100" viewBox="0 0 100 100"><rect width="100%" height="100%" fill="#70C041" rx="5" ry="5"></rect><g transform="translate(50 50) scale(0.69 0.69) rotate(0) translate(-50 -50)" style="fill:#FFFFFF"><svg fill="#FFFFFF" xmlns="http://www.w3.org/2000/svg" xmlns:xlink="http://www.w3.org/1999/xlink" version="1.1" x="0px" y="0px" viewBox="0 0 53 53" enable-background="new 0 0 53 53" xml:space="preserve"><g><g><g><path d="M15.93472,9.01727v2.33643l-7.44611,5.97318V9.01727c0-0.41647,0.34535-0.76188,0.76188-0.76188h5.92234     C15.58937,8.25539,15.93472,8.60081,15.93472,9.01727z"></path></g><g><g><path d="M27.68807,26.36795H2.62715c-0.32508,0-0.60948-0.20318-0.72127-0.50792      c-0.10156-0.30474-0.01017-0.65016,0.24379-0.84317l17.0256-13.65298c0.46731,1.56438,1.42221,2.92564,2.82408,3.83993      c0.03044,0.2844,0.07112,0.56887,0.13206,0.84311c-1.29015,0.46731-2.20443,1.70662-2.20443,3.16944      c0,1.86918,1.51366,3.39295,3.39295,3.39295c0.93456,0,1.7879-0.38603,2.39738-0.99551      C25.93068,23.47275,26.62144,25.07781,27.68807,26.36795z"></path></g></g><path d="M40.25409,28.75517c-1.54404,0.65016-3.18971,1.00568-4.87605,1.00568c-1.96058,0-3.76881-0.47742-5.29258-1.3612H5.65436    V50.7381c0,0.41647,0.34542,0.76188,0.76189,0.76188h33.79724c0.41647,0,0.76188-0.34541,0.76188-0.76188V29.37482    L40.25409,28.75517z M15.50808,44.73447h-4.14467v-2.96632h4.14467V44.73447z M15.50808,40.24439h-4.14467v-2.97642h4.14467    V40.24439z M21.17652,44.73447h-4.14467v-2.96632h4.14467V44.73447z M21.17652,40.24439h-4.14467v-2.97642h4.14467V40.24439z     M36.02819,49.72226h-9.09184V36.50608h9.09184V49.72226z"></path></g><g><g><g><path d="M48.1269,27.75966l-2.33644,2.18403c-0.14223,0.13206-0.33524,0.20318-0.51809,0.20318      c-0.17268,0-0.35552-0.06095-0.49776-0.18285l-2.57006-2.21454c1.5136-0.94473,2.86463-2.22471,3.96176-3.73831l2.05203,2.73263      C48.45198,27.05872,48.41137,27.49553,48.1269,27.75966z"></path></g></g><path d="M45.88192,12.93843c-1.20886-2.38721-3.51485-3.80942-6.35921-3.92115c-0.833-2.45833-3.06788-4.03288-5.86145-4.07355    c-0.6806-2.11292-2.5904-3.44373-5.02845-3.44373c-1.83868,0-3.68753,0.77205-5.20113,2.18409    c-2.05197,1.93013-2.95609,4.58148-2.36688,6.91791c0.4063,1.58472,1.45265,2.78341,2.93575,3.36245    c-0.05078,0.91429,0.07112,1.7879,0.35558,2.59039c0.34535,1.03618,0.97517,1.9403,1.80817,2.6209    c0.44698,0.38603,0.9549,0.69077,1.5136,0.93456c-0.06095,2.07237,0.56887,3.87037,1.80824,5.23163    c1.41204,1.54411,3.50468,2.38721,5.8919,2.38721c2.76586,0,5.46055-1.15014,7.56199-3.12932    c-0.30679,0.26035-0.76628,0.24404-1.04617-0.05518l-1.99635-2.13443l-4.36955-0.88235    c-0.41269-0.08333-0.67955-0.4856-0.59621-0.89779c0.08383-0.41269,0.48461-0.67508,0.89779-0.59621l2.27499,0.45938    l-2.64217-2.82483l-4.30284-1.191c-0.40525-0.1121-0.64334-0.53173-0.53074-0.93748    c0.1121-0.40574,0.53322-0.64433,0.93748-0.53074l1.90106,0.52621l-5.78935-6.18976    c-0.2872-0.30704-0.27132-0.78917,0.03621-1.07686c0.30704-0.28719,0.78817-0.27182,1.07686,0.03621l3.5536,3.79938    L31.9467,10.1725c-0.08532-0.41219,0.18006-0.81496,0.59225-0.89978c0.41319-0.0878,0.81496,0.18005,0.89978,0.59225    l0.90065,4.37203l2.64211,2.82489l-0.30623-2.29973c-0.05555-0.41715,0.23759-0.80057,0.65474-0.85613    c0.41666-0.05506,0.80058,0.2371,0.85613,0.65475l0.58834,4.41804l4.23247,4.52518    c0.2756,0.29463,0.26463,0.74644-0.00775,1.03699c0.56118-0.53576,1.08883-1.11821,1.55198-1.76918    C46.85709,19.64305,47.36501,15.87424,45.88192,12.93843z"></path></g><g><path d="M51.13383,50.67715c0.01017,0.21335-0.06095,0.41647-0.20318,0.56887c-0.15234,0.1524-0.34535,0.24379-0.5587,0.24379    h-6.52172c-0.20318,0-0.40636-0.09139-0.5486-0.24379c-0.15234-0.1524-0.22346-0.35552-0.21329-0.56887l1.09707-17.99066    c0.02034-0.24379,0.1524-0.46725,0.35558-0.59932c0.21329-0.13206,0.47742-0.1524,0.70094-0.06095l1.54404,0.65009    l1.70668-2.67162c0.18285-0.2743,0.51803-0.40636,0.83294-0.32508c0.32508,0.08122,0.5486,0.36569,0.56887,0.69077    L51.13383,50.67715z"></path></g></g></svg></g></svg>